<?xml version="1.0" encoding="UTF-8"?>
<svg xmlns="http://www.w3.org/2000/svg" id="Layer_1" data-name="Layer 1" viewBox="0 0 24 24">
  <path d="m24,16c0,2.631-3.391,6.203-5.074,7.488-.546.416-1.306.416-1.851,0-1.684-1.285-5.074-4.857-5.074-7.488,0-1.657,1.343-3,3-3s3,1.343,3,3c0-1.657,1.343-3,3-3s3,1.343,3,3Zm-9.382,8H5c-2.757,0-5-2.243-5-5V5C0,2.243,2.243,0,5,0h9c2.757,0,5,2.243,5,5v6.435c-.354.156-.694.338-1,.567-.586-.441-1.276-.746-2.022-.895.004-.037.022-.069.022-.107,0-.553-.448-1-1-1h-6c-.552,0-1,.447-1,1s.448,1,1,1h3.031c-1.225.912-2.031,2.359-2.031,4,0,2.984,2.73,6.213,4.618,8ZM8,6c0,.553.448,1,1,1h6c.552,0,1-.447,1-1s-.448-1-1-1h-6c-.552,0-1,.447-1,1Zm-2,10c0-.828-.672-1.5-1.5-1.5s-1.5.672-1.5,1.5.672,1.5,1.5,1.5,1.5-.672,1.5-1.5Zm0-5c0-.828-.672-1.5-1.5-1.5s-1.5.672-1.5,1.5.672,1.5,1.5,1.5,1.5-.672,1.5-1.5Zm0-5c0-.828-.672-1.5-1.5-1.5s-1.5.672-1.5,1.5.672,1.5,1.5,1.5,1.5-.672,1.5-1.5Z"/>
</svg>
